<?xml version="1.0" standalone="no"?><!-- Generator: Gravit.io --><svg xmlns="http://www.w3.org/2000/svg" xmlns:xlink="http://www.w3.org/1999/xlink" style="isolation:isolate" viewBox="112 216 202.047 219.602" width="202.047" height="219.602"><g id="Group"><g id="Group"><defs><filter id="Uo0bAEvQsEZf5SmUhjEcUsm85SOoa0Bk" x="-200%" y="-200%" width="400%" height="400%"><feOffset xmlns="http://www.w3.org/2000/svg" in="SourceAlpha" result="offOut" dx="0" dy="0"/><feGaussianBlur xmlns="http://www.w3.org/2000/svg" in="offOut" result="blurOut" stdDeviation="2.5"/><feComponentTransfer xmlns="http://www.w3.org/2000/svg" in="blurOut" result="opacOut"><feFuncA xmlns="http://www.w3.org/2000/svg" type="table" tableValues="0 0.5"/></feComponentTransfer><feBlend xmlns="http://www.w3.org/2000/svg" in="SourceGraphic" in2="opacOut" mode="normal" result="_out_dbrEAQcPGQ8IpSDkRjaWpTsSAL6FIO8u"/><feOffset xmlns="http://www.w3.org/2000/svg" in="_out_dbrEAQcPGQ8IpSDkRjaWpTsSAL6FIO8u" result="offOut" dx="0" dy="0"/><feGaussianBlur xmlns="http://www.w3.org/2000/svg" in="offOut" result="blurOut" stdDeviation="2.5"/><feComponentTransfer xmlns="http://www.w3.org/2000/svg" in="blurOut" result="opacOut"><feFuncA xmlns="http://www.w3.org/2000/svg" type="table" tableValues="0 0.5"/></feComponentTransfer><feBlend xmlns="http://www.w3.org/2000/svg" in="_out_dbrEAQcPGQ8IpSDkRjaWpTsSAL6FIO8u" in2="opacOut" mode="normal"/></filter></defs><g filter="url(#Uo0bAEvQsEZf5SmUhjEcUsm85SOoa0Bk)"><path d=" M 291.552 391.336 L 259.128 409.25 L 226.704 427.164 C 218.009 431.968 204.041 431.705 195.533 426.577 L 163.807 407.454 L 132.081 388.331 C 123.572 383.202 116.817 370.975 117.004 361.042 L 117.702 324.005 L 118.4 286.968 C 118.587 277.035 125.798 265.07 134.494 260.266 L 166.918 242.352 L 199.342 224.438 C 208.038 219.634 222.005 219.897 230.514 225.025 L 262.24 244.148 L 293.966 263.271 C 302.474 268.4 309.23 280.627 309.043 290.56 L 308.345 327.597 L 307.647 364.634 C 307.46 374.567 300.248 386.532 291.552 391.336 Z " fill="rgb(235,235,235)"/></g><path d=" M 179.756 368.891 L 179.756 368.891 L 179.756 368.891 Q 179.756 368.987 179.672 368.987 L 179.672 368.987 L 179.672 368.987 Q 179.588 368.987 179.564 368.867 L 179.564 368.867 L 179.564 368.867 Q 179.42 368.315 179.012 368.015 L 179.012 368.015 L 179.012 368.015 Q 178.604 367.715 178.304 367.703 L 178.304 367.703 L 178.304 367.703 Q 178.004 367.691 177.764 367.691 L 177.764 367.691 L 177.764 367.691 Q 176.9 367.691 176.156 368.171 L 176.156 368.171 L 176.156 368.171 Q 174.74 369.083 172.868 371.627 L 172.868 371.627 L 172.868 371.627 Q 174.188 371.747 174.644 372.107 L 174.644 372.107 L 174.644 372.107 Q 175.532 372.779 175.364 373.091 L 175.364 373.091 L 175.364 373.091 Q 175.316 373.211 174.932 372.983 L 174.932 372.983 L 174.932 372.983 Q 174.548 372.755 173.756 372.755 L 173.756 372.755 L 173.756 372.755 Q 172.964 372.755 171.908 373.043 L 171.908 373.043 L 171.908 373.043 Q 170.252 375.467 169.46 378.011 L 169.46 378.011 L 169.46 378.011 Q 169.124 379.115 169.124 379.835 L 169.124 379.835 L 169.124 379.835 Q 169.124 380.555 169.436 380.915 L 169.436 380.915 L 169.436 380.915 Q 169.532 381.011 169.46 381.035 L 169.46 381.035 L 169.46 381.035 Q 169.388 381.059 169.364 381.059 L 169.364 381.059 L 169.364 381.059 Q 169.34 381.059 169.316 381.035 L 169.316 381.035 L 169.316 381.035 Q 168.428 380.315 168.428 378.755 L 168.428 378.755 L 168.428 378.755 Q 168.428 377.195 169.892 373.811 L 169.892 373.811 L 169.892 373.811 Q 169.772 373.859 169.712 373.811 L 169.712 373.811 L 169.712 373.811 Q 169.652 373.763 169.568 373.595 L 169.568 373.595 L 169.568 373.595 Q 169.484 373.427 169.436 373.175 L 169.436 373.175 L 169.436 373.175 Q 169.388 372.923 169.448 372.671 L 169.448 372.671 L 169.448 372.671 Q 169.508 372.419 169.796 372.155 L 169.796 372.155 L 169.796 372.155 Q 170.132 371.867 170.924 371.699 L 170.924 371.699 L 170.924 371.699 Q 172.7 368.411 174.356 367.283 L 174.356 367.283 L 174.356 367.283 Q 175.46 366.539 176.636 366.539 L 176.636 366.539 L 176.636 366.539 Q 177.812 366.539 178.652 367.115 L 178.652 367.115 L 178.652 367.115 Q 179.756 367.883 179.756 368.891 Z  M 178.748 378.323 L 178.748 378.323 L 178.748 378.323 Q 177.14 379.139 175.94 379.139 L 175.94 379.139 L 175.94 379.139 Q 174.932 379.139 174.572 378.467 L 174.572 378.467 L 174.572 378.467 Q 174.38 378.131 174.38 377.699 L 174.38 377.699 L 174.38 377.699 Q 174.38 376.715 174.836 375.779 L 174.836 375.779 L 174.836 375.779 Q 174.524 376.091 174.236 376.283 L 174.236 376.283 L 174.236 376.283 Q 173.996 376.499 173.996 376.235 L 173.996 376.235 L 173.996 376.235 Q 173.996 376.067 174.416 375.707 L 174.416 375.707 L 174.416 375.707 Q 174.836 375.347 175.7 374.495 L 175.7 374.495 L 175.7 374.495 Q 176.564 373.643 177.068 373.211 L 177.068 373.211 L 177.068 373.211 Q 178.532 371.987 180.164 371.987 L 180.164 371.987 L 180.164 371.987 Q 180.764 371.987 181.388 372.299 L 181.388 372.299 L 181.388 372.299 Q 182.3 372.731 182.3 373.883 L 182.3 373.883 L 182.3 373.883 Q 182.3 375.275 180.908 376.739 L 180.908 376.739 L 180.908 376.739 Q 180.356 377.363 179.372 377.987 L 179.372 377.987 L 179.372 377.987 Q 181.34 377.675 183.548 375.611 L 183.548 375.611 L 183.548 375.611 Q 183.668 375.515 183.764 375.527 L 183.764 375.527 L 183.764 375.527 Q 183.86 375.539 183.86 375.635 L 183.86 375.635 L 183.86 375.635 Q 183.86 375.731 183.764 375.827 L 183.764 375.827 L 183.764 375.827 Q 181.124 378.323 178.844 378.323 L 178.844 378.323 L 178.844 378.323 Q 178.796 378.323 178.748 378.323 Z  M 181.076 375.803 L 181.076 375.803 L 181.076 375.803 Q 181.676 374.891 181.676 374.255 L 181.676 374.255 L 181.676 374.255 Q 181.676 373.619 181.124 373.283 L 181.124 373.283 L 181.124 373.283 Q 180.812 373.019 180.404 373.019 L 180.404 373.019 L 180.404 373.019 Q 178.94 373.019 177.704 374.171 L 177.704 374.171 L 177.704 374.171 Q 176.468 375.323 176.06 376.619 L 176.06 376.619 L 176.06 376.619 Q 175.892 377.075 175.892 377.567 L 175.892 377.567 L 175.892 377.567 Q 175.892 378.059 176.264 378.263 L 176.264 378.263 L 176.264 378.263 Q 176.636 378.467 177.092 378.467 L 177.092 378.467 L 177.092 378.467 Q 177.548 378.467 178.412 378.011 L 178.412 378.011 L 178.412 378.011 Q 178.364 378.011 178.268 377.963 L 178.268 377.963 L 178.268 377.963 Q 177.98 377.819 177.98 377.579 L 177.98 377.579 L 177.98 377.579 Q 177.98 376.739 178.916 375.875 L 178.916 375.875 L 178.916 375.875 Q 179.588 375.275 180.284 375.275 L 180.284 375.275 L 180.284 375.275 Q 180.98 375.275 181.076 375.803 Z  M 190.436 377.627 L 190.436 377.627 L 190.436 377.627 Q 189.98 378.875 189.98 379.667 L 189.98 379.667 L 189.98 379.667 Q 189.98 380.459 190.316 380.867 L 190.316 380.867 L 190.316 380.867 Q 190.388 380.963 190.34 380.999 L 190.34 380.999 L 190.34 380.999 Q 190.292 381.035 190.268 381.035 L 190.268 381.035 L 190.268 381.035 Q 190.244 381.035 190.196 381.011 L 190.196 381.011 L 190.196 381.011 Q 189.428 380.387 189.428 379.151 L 189.428 379.151 L 189.428 379.151 Q 189.428 377.915 189.932 376.307 L 189.932 376.307 L 189.932 376.307 Q 188.948 377.579 187.988 378.395 L 187.988 378.395 L 187.988 378.395 Q 186.836 379.355 185.636 379.355 L 185.636 379.355 L 185.636 379.355 Q 184.868 379.355 184.196 378.839 L 184.196 378.839 L 184.196 378.839 Q 183.524 378.323 183.524 377.147 L 183.524 377.147 L 183.524 377.147 Q 183.5 376.571 183.74 375.827 L 183.74 375.827 L 183.74 375.827 Q 183.26 376.259 183.128 376.355 L 183.128 376.355 L 183.128 376.355 Q 182.996 376.451 182.948 376.355 L 182.948 376.355 L 182.948 376.355 Q 182.9 376.259 182.9 376.175 L 182.9 376.175 L 182.9 376.175 Q 182.9 376.091 183.056 375.959 L 183.056 375.959 L 183.056 375.959 Q 183.212 375.827 184.724 374.195 L 184.724 374.195 L 184.724 374.195 Q 185.612 373.211 186.836 372.659 L 186.836 372.659 L 186.836 372.659 Q 188.06 372.107 189.164 372.107 L 189.164 372.107 L 189.164 372.107 Q 190.172 372.107 190.64 372.455 L 190.64 372.455 L 190.64 372.455 Q 191.108 372.803 191.108 373.331 L 191.108 373.331 L 191.108 373.331 Q 191.972 371.507 192.968 369.863 L 192.968 369.863 L 192.968 369.863 Q 193.964 368.219 194.516 367.595 L 194.516 367.595 L 194.516 367.595 Q 195.116 366.923 196.028 366.923 L 196.028 366.923 L 196.028 366.923 Q 196.94 366.923 197.516 367.427 L 197.516 367.427 L 197.516 367.427 Q 197.012 367.739 195.548 369.491 L 195.548 369.491 L 195.548 369.491 Q 194.084 371.243 192.692 373.247 L 192.692 373.247 L 192.692 373.247 Q 191.3 375.251 190.436 377.627 Z  M 190.628 373.091 L 190.628 373.091 L 190.628 373.091 Q 190.628 372.611 190.028 372.611 L 190.028 372.611 L 190.028 372.611 Q 189.716 372.611 189.212 372.803 L 189.212 372.803 L 189.212 372.803 Q 188.084 373.235 186.98 374.483 L 186.98 374.483 L 186.98 374.483 Q 185.612 376.043 185.612 377.459 L 185.612 377.459 L 185.612 377.459 Q 185.612 378.299 186.164 378.467 L 186.164 378.467 L 186.164 378.467 Q 186.284 378.515 186.404 378.515 L 186.404 378.515 L 186.404 378.515 Q 187.388 378.515 189.332 376.547 L 189.332 376.547 L 189.332 376.547 Q 189.86 376.043 190.22 375.467 L 190.22 375.467 L 190.22 375.467 Q 190.412 374.915 190.724 374.195 L 190.724 374.195 L 190.724 374.195 Q 190.508 374.339 190.376 374.231 L 190.376 374.231 L 190.376 374.231 Q 190.244 374.123 190.436 373.751 L 190.436 373.751 L 190.436 373.751 Q 190.628 373.379 190.628 373.091 Z  M 199.892 377.627 L 199.892 377.627 L 199.892 377.627 Q 199.436 378.875 199.436 379.667 L 199.436 379.667 L 199.436 379.667 Q 199.436 380.459 199.772 380.867 L 199.772 380.867 L 199.772 380.867 Q 199.844 380.963 199.796 380.999 L 199.796 380.999 L 199.796 380.999 Q 199.748 381.035 199.724 381.035 L 199.724 381.035 L 199.724 381.035 Q 199.7 381.035 199.652 381.011 L 199.652 381.011 L 199.652 381.011 Q 198.884 380.387 198.884 379.151 L 198.884 379.151 L 198.884 379.151 Q 198.884 377.915 199.388 376.307 L 199.388 376.307 L 199.388 376.307 Q 198.404 377.579 197.444 378.395 L 197.444 378.395 L 197.444 378.395 Q 196.292 379.355 195.092 379.355 L 195.092 379.355 L 195.092 379.355 Q 194.324 379.355 193.652 378.839 L 193.652 378.839 L 193.652 378.839 Q 192.98 378.323 192.98 377.147 L 192.98 377.147 L 192.98 377.147 Q 192.956 376.571 193.196 375.827 L 193.196 375.827 L 193.196 375.827 Q 192.716 376.259 192.584 376.355 L 192.584 376.355 L 192.584 376.355 Q 192.452 376.451 192.404 376.355 L 192.404 376.355 L 192.404 376.355 Q 192.356 376.259 192.356 376.175 L 192.356 376.175 L 192.356 376.175 Q 192.356 376.091 192.512 375.959 L 192.512 375.959 L 192.512 375.959 Q 192.668 375.827 194.18 374.195 L 194.18 374.195 L 194.18 374.195 Q 195.068 373.211 196.292 372.659 L 196.292 372.659 L 196.292 372.659 Q 197.516 372.107 198.62 372.107 L 198.62 372.107 L 198.62 372.107 Q 199.628 372.107 200.096 372.455 L 200.096 372.455 L 200.096 372.455 Q 200.564 372.803 200.564 373.331 L 200.564 373.331 L 200.564 373.331 Q 201.428 371.507 202.424 369.863 L 202.424 369.863 L 202.424 369.863 Q 203.42 368.219 203.972 367.595 L 203.972 367.595 L 203.972 367.595 Q 204.572 366.923 205.484 366.923 L 205.484 366.923 L 205.484 366.923 Q 206.396 366.923 206.972 367.427 L 206.972 367.427 L 206.972 367.427 Q 206.468 367.739 205.004 369.491 L 205.004 369.491 L 205.004 369.491 Q 203.54 371.243 202.148 373.247 L 202.148 373.247 L 202.148 373.247 Q 200.756 375.251 199.892 377.627 Z  M 200.084 373.091 L 200.084 373.091 L 200.084 373.091 Q 200.084 372.611 199.484 372.611 L 199.484 372.611 L 199.484 372.611 Q 199.172 372.611 198.668 372.803 L 198.668 372.803 L 198.668 372.803 Q 197.54 373.235 196.436 374.483 L 196.436 374.483 L 196.436 374.483 Q 195.068 376.043 195.068 377.459 L 195.068 377.459 L 195.068 377.459 Q 195.068 378.299 195.62 378.467 L 195.62 378.467 L 195.62 378.467 Q 195.74 378.515 195.86 378.515 L 195.86 378.515 L 195.86 378.515 Q 196.844 378.515 198.788 376.547 L 198.788 376.547 L 198.788 376.547 Q 199.316 376.043 199.676 375.467 L 199.676 375.467 L 199.676 375.467 Q 199.868 374.915 200.18 374.195 L 200.18 374.195 L 200.18 374.195 Q 199.964 374.339 199.832 374.231 L 199.832 374.231 L 199.832 374.231 Q 199.7 374.123 199.892 373.751 L 199.892 373.751 L 199.892 373.751 Q 200.084 373.379 200.084 373.091 Z  M 207.236 371.411 L 207.236 371.411 L 207.236 371.411 Q 206.972 371.195 207.02 370.787 L 207.02 370.787 L 207.02 370.787 Q 207.068 370.379 207.452 369.923 L 207.452 369.923 L 207.452 369.923 Q 207.836 369.467 208.484 369.467 L 208.484 369.467 L 208.484 369.467 Q 208.676 369.467 208.892 369.647 L 208.892 369.647 L 208.892 369.647 Q 209.108 369.827 209.06 370.247 L 209.06 370.247 L 209.06 370.247 Q 209.012 370.667 208.676 371.039 L 208.676 371.039 L 208.676 371.039 Q 208.34 371.411 207.92 371.519 L 207.92 371.519 L 207.92 371.519 Q 207.5 371.627 207.236 371.411 Z  M 206.924 372.683 L 206.924 372.683 L 206.924 372.683 Q 205.94 373.691 205.28 375.239 L 205.28 375.239 L 205.28 375.239 Q 204.62 376.787 204.62 377.411 L 204.62 377.411 L 204.62 377.411 Q 204.62 378.035 205.112 378.035 L 205.112 378.035 L 205.112 378.035 Q 205.604 378.035 206.744 377.315 L 206.744 377.315 L 206.744 377.315 Q 207.884 376.595 209.348 375.275 L 209.348 375.275 L 209.348 375.275 Q 209.66 374.987 209.66 375.347 L 209.66 375.347 L 209.66 375.347 Q 209.66 375.395 209.612 375.443 L 209.612 375.443 L 209.612 375.443 Q 208.46 376.451 207.668 377.099 L 207.668 377.099 L 207.668 377.099 Q 206.876 377.747 205.784 378.335 L 205.784 378.335 L 205.784 378.335 Q 204.692 378.923 203.996 378.923 L 203.996 378.923 L 203.996 378.923 Q 203.132 378.923 202.712 378.539 L 202.712 378.539 L 202.712 378.539 Q 202.292 378.155 202.292 377.699 L 202.292 377.699 L 202.292 377.699 Q 202.292 376.835 202.604 376.331 L 202.604 376.331 L 202.604 376.331 Q 202.916 375.827 203.66 374.939 L 203.66 374.939 L 203.66 374.939 Q 203.396 375.155 202.832 375.659 L 202.832 375.659 L 202.832 375.659 Q 202.268 376.163 202.052 376.331 L 202.052 376.331 L 202.052 376.331 Q 201.836 376.499 201.836 376.235 L 201.836 376.235 L 201.836 376.235 Q 201.836 376.067 202.22 375.755 L 202.22 375.755 L 202.22 375.755 Q 202.604 375.443 203.888 374.171 L 203.888 374.171 L 203.888 374.171 Q 205.172 372.899 205.64 372.659 L 205.64 372.659 L 205.64 372.659 Q 206.108 372.419 206.408 372.419 L 206.408 372.419 L 206.408 372.419 Q 206.708 372.419 206.852 372.503 L 206.852 372.503 L 206.852 372.503 Q 206.996 372.587 206.924 372.683 Z  M 214.508 374.987 L 214.508 374.987 L 214.508 374.987 Q 215.78 374.291 215.78 373.571 L 215.78 373.571 L 215.78 373.571 Q 215.78 372.851 214.916 372.851 L 214.916 372.851 L 214.916 372.851 Q 214.508 372.851 214.052 373.067 L 214.052 373.067 L 214.052 373.067 Q 213.044 373.523 212.108 374.651 L 212.108 374.651 L 212.108 374.651 Q 210.956 376.043 210.956 377.243 L 210.956 377.243 L 210.956 377.243 Q 210.956 377.699 211.208 378.095 L 211.208 378.095 L 211.208 378.095 Q 211.46 378.491 212.108 378.491 L 212.108 378.491 L 212.108 378.491 Q 213.236 378.491 214.964 377.303 L 214.964 377.303 L 214.964 377.303 Q 216.692 376.115 217.94 374.915 L 217.94 374.915 L 217.94 374.915 Q 218.228 374.627 218.228 374.891 L 218.228 374.891 L 218.228 374.891 Q 218.228 375.059 218.084 375.179 L 218.084 375.179 L 218.084 375.179 Q 217.196 375.995 216.896 376.271 L 216.896 376.271 L 216.896 376.271 Q 216.596 376.547 215.708 377.255 L 215.708 377.255 L 215.708 377.255 Q 214.82 377.963 214.268 378.251 L 214.268 378.251 L 214.268 378.251 Q 212.564 379.139 211.376 379.139 L 211.376 379.139 L 211.376 379.139 Q 210.188 379.139 209.504 378.599 L 209.504 378.599 L 209.504 378.599 Q 208.82 378.059 208.82 377.099 L 208.82 377.099 L 208.82 377.099 Q 208.82 375.059 210.644 373.583 L 210.644 373.583 L 210.644 373.583 Q 212.468 372.107 214.46 372.107 L 214.46 372.107 L 214.46 372.107 Q 215.804 372.107 216.26 372.683 L 216.26 372.683 L 216.26 372.683 Q 216.452 372.971 216.452 373.295 L 216.452 373.295 L 216.452 373.295 Q 216.452 373.619 216.236 374.003 L 216.236 374.003 L 216.236 374.003 Q 215.804 374.747 214.616 375.311 L 214.616 375.311 L 214.616 375.311 Q 213.428 375.875 212.372 375.875 L 212.372 375.875 L 212.372 375.875 Q 211.964 375.875 211.928 375.803 L 211.928 375.803 L 211.928 375.803 Q 211.892 375.731 211.988 375.695 L 211.988 375.695 L 211.988 375.695 Q 212.084 375.659 212.252 375.659 L 212.252 375.659 L 212.252 375.659 Q 213.212 375.659 214.508 374.987 Z  M 218.996 378.899 L 218.996 378.899 L 218.996 378.899 Q 218.708 378.899 218.48 378.707 L 218.48 378.707 L 218.48 378.707 Q 218.252 378.515 218.252 378.299 L 218.252 378.299 L 218.252 378.299 Q 218.252 377.579 218.66 377.147 L 218.66 377.147 L 218.66 377.147 Q 219.236 376.547 219.86 376.547 L 219.86 376.547 L 219.86 376.547 Q 220.124 376.547 220.352 376.727 L 220.352 376.727 L 220.352 376.727 Q 220.58 376.907 220.58 377.375 L 220.58 377.375 L 220.58 377.375 Q 220.58 377.843 220.088 378.371 L 220.088 378.371 L 220.088 378.371 Q 219.596 378.899 218.996 378.899 Z  M 228.932 373.043 L 228.932 373.043 L 228.932 373.043 Q 228.932 372.587 228.452 372.587 L 228.452 372.587 L 228.452 372.587 Q 228.044 372.587 227.192 372.959 L 227.192 372.959 L 227.192 372.959 Q 226.34 373.331 225.284 374.555 L 225.284 374.555 L 225.284 374.555 Q 224.012 376.067 224.012 377.243 L 224.012 377.243 L 224.012 377.243 Q 224.012 378.131 224.684 378.443 L 224.684 378.443 L 224.684 378.443 Q 224.9 378.539 225.188 378.539 L 225.188 378.539 L 225.188 378.539 Q 226.172 378.539 227.504 377.699 L 227.504 377.699 L 227.504 377.699 Q 228.836 376.859 230.948 374.915 L 230.948 374.915 L 230.948 374.915 Q 231.284 374.579 231.284 374.915 L 231.284 374.915 L 231.284 374.915 Q 231.284 375.059 231.14 375.179 L 231.14 375.179 L 231.14 375.179 Q 228.212 377.867 226.832 378.503 L 226.832 378.503 L 226.832 378.503 Q 225.452 379.139 224.66 379.139 L 224.66 379.139 L 224.66 379.139 Q 221.876 379.139 221.876 377.099 L 221.876 377.099 L 221.876 377.099 Q 221.876 375.059 223.712 373.583 L 223.712 373.583 L 223.712 373.583 Q 225.548 372.107 227.54 372.107 L 227.54 372.107 L 227.54 372.107 Q 228.788 372.107 229.22 372.683 L 229.22 372.683 L 229.22 372.683 Q 229.484 372.971 229.484 373.295 L 229.484 373.295 L 229.484 373.295 Q 229.484 373.619 229.316 373.967 L 229.316 373.967 L 229.316 373.967 Q 229.148 374.315 228.776 374.315 L 228.776 374.315 L 228.776 374.315 Q 228.404 374.315 228.668 373.847 L 228.668 373.847 L 228.668 373.847 Q 228.932 373.379 228.932 373.043 Z  M 234.404 378.323 L 234.404 378.323 L 234.404 378.323 Q 232.796 379.139 231.596 379.139 L 231.596 379.139 L 231.596 379.139 Q 230.588 379.139 230.228 378.467 L 230.228 378.467 L 230.228 378.467 Q 230.036 378.131 230.036 377.699 L 230.036 377.699 L 230.036 377.699 Q 230.036 376.715 230.492 375.779 L 230.492 375.779 L 230.492 375.779 Q 230.18 376.091 229.892 376.283 L 229.892 376.283 L 229.892 376.283 Q 229.652 376.499 229.652 376.235 L 229.652 376.235 L 229.652 376.235 Q 229.652 376.067 230.072 375.707 L 230.072 375.707 L 230.072 375.707 Q 230.492 375.347 231.356 374.495 L 231.356 374.495 L 231.356 374.495 Q 232.22 373.643 232.724 373.211 L 232.724 373.211 L 232.724 373.211 Q 234.188 371.987 235.82 371.987 L 235.82 371.987 L 235.82 371.987 Q 236.42 371.987 237.044 372.299 L 237.044 372.299 L 237.044 372.299 Q 237.956 372.731 237.956 373.883 L 237.956 373.883 L 237.956 373.883 Q 237.956 375.275 236.564 376.739 L 236.564 376.739 L 236.564 376.739 Q 236.012 377.363 235.028 377.987 L 235.028 377.987 L 235.028 377.987 Q 236.996 377.675 239.204 375.611 L 239.204 375.611 L 239.204 375.611 Q 239.324 375.515 239.42 375.527 L 239.42 375.527 L 239.42 375.527 Q 239.516 375.539 239.516 375.635 L 239.516 375.635 L 239.516 375.635 Q 239.516 375.731 239.42 375.827 L 239.42 375.827 L 239.42 375.827 Q 236.78 378.323 234.5 378.323 L 234.5 378.323 L 234.5 378.323 Q 234.452 378.323 234.404 378.323 Z  M 236.732 375.803 L 236.732 375.803 L 236.732 375.803 Q 237.332 374.891 237.332 374.255 L 237.332 374.255 L 237.332 374.255 Q 237.332 373.619 236.78 373.283 L 236.78 373.283 L 236.78 373.283 Q 236.468 373.019 236.06 373.019 L 236.06 373.019 L 236.06 373.019 Q 234.596 373.019 233.36 374.171 L 233.36 374.171 L 233.36 374.171 Q 232.124 375.323 231.716 376.619 L 231.716 376.619 L 231.716 376.619 Q 231.548 377.075 231.548 377.567 L 231.548 377.567 L 231.548 377.567 Q 231.548 378.059 231.92 378.263 L 231.92 378.263 L 231.92 378.263 Q 232.292 378.467 232.748 378.467 L 232.748 378.467 L 232.748 378.467 Q 233.204 378.467 234.068 378.011 L 234.068 378.011 L 234.068 378.011 Q 234.02 378.011 233.924 377.963 L 233.924 377.963 L 233.924 377.963 Q 233.636 377.819 233.636 377.579 L 233.636 377.579 L 233.636 377.579 Q 233.636 376.739 234.572 375.875 L 234.572 375.875 L 234.572 375.875 Q 235.244 375.275 235.94 375.275 L 235.94 375.275 L 235.94 375.275 Q 236.636 375.275 236.732 375.803 Z  M 250.316 373.379 L 250.316 373.379 L 250.316 373.379 Q 250.316 374.267 248.804 376.307 L 248.804 376.307 L 248.804 376.307 Q 247.892 377.531 247.892 377.819 L 247.892 377.819 L 247.892 377.819 Q 247.892 378.107 248.192 378.107 L 248.192 378.107 L 248.192 378.107 Q 248.492 378.107 249.044 377.747 L 249.044 377.747 L 249.044 377.747 Q 250.412 376.811 251.78 375.491 L 251.78 375.491 L 251.78 375.491 Q 251.972 375.299 252.044 375.395 L 252.044 375.395 L 252.044 375.395 Q 252.116 375.491 252.116 375.539 L 252.116 375.539 L 252.116 375.539 Q 252.116 375.587 251.588 376.091 L 251.588 376.091 L 251.588 376.091 Q 251.06 376.595 250.424 377.147 L 250.424 377.147 L 250.424 377.147 Q 249.788 377.699 248.828 378.287 L 248.828 378.287 L 248.828 378.287 Q 247.868 378.875 247.244 378.875 L 247.244 378.875 L 247.244 378.875 Q 245.948 378.875 245.948 377.723 L 245.948 377.723 L 245.948 377.723 Q 245.948 377.315 246.092 376.763 L 246.092 376.763 L 246.092 376.763 Q 246.404 375.827 248.804 373.139 L 248.804 373.139 L 248.804 373.139 Q 249.116 372.803 249.116 372.611 L 249.116 372.611 L 249.116 372.611 Q 249.116 372.419 248.636 372.419 L 248.636 372.419 L 248.636 372.419 Q 248.156 372.419 247.124 373.259 L 247.124 373.259 L 247.124 373.259 Q 246.764 373.547 246.236 374.111 L 246.236 374.111 L 246.236 374.111 Q 245.708 374.675 245 375.923 L 245 375.923 L 245 375.923 Q 244.292 377.171 243.956 378.131 L 243.956 378.131 L 243.956 378.131 Q 243.812 378.563 243.38 378.563 L 243.38 378.563 L 243.38 378.563 Q 243.284 378.563 243.14 378.539 L 243.14 378.539 L 243.14 378.539 Q 242.684 378.419 242.78 378.107 L 242.78 378.107 L 242.78 378.107 Q 244.652 374.771 245.012 373.931 L 245.012 373.931 L 245.012 373.931 Q 245.372 373.091 245.372 372.731 L 245.372 372.731 L 245.372 372.731 Q 245.372 372.371 245.084 372.371 L 245.084 372.371 L 245.084 372.371 Q 243.812 372.371 241.436 376.523 L 241.436 376.523 L 241.436 376.523 Q 240.572 377.867 240.044 378.443 L 240.044 378.443 L 240.044 378.443 Q 239.516 379.019 239.084 379.019 L 239.084 379.019 L 239.084 379.019 Q 239.036 379.019 238.988 379.019 L 238.988 379.019 L 238.988 379.019 Q 238.364 379.019 237.764 378.515 L 237.764 378.515 L 237.764 378.515 Q 237.908 378.299 238.46 377.579 L 238.46 377.579 L 238.46 377.579 Q 239.684 376.091 240.596 374.699 L 240.596 374.699 L 240.596 374.699 Q 239.564 375.731 238.844 376.307 L 238.844 376.307 L 238.844 376.307 Q 238.604 376.499 238.568 376.331 L 238.568 376.331 L 238.568 376.331 Q 238.532 376.163 238.676 376.031 L 238.676 376.031 L 238.676 376.031 Q 238.82 375.899 239.156 375.599 L 239.156 375.599 L 239.156 375.599 Q 239.492 375.299 239.6 375.203 L 239.6 375.203 L 239.6 375.203 Q 239.708 375.107 240.008 374.831 L 240.008 374.831 L 240.008 374.831 Q 240.308 374.555 240.452 374.387 L 240.452 374.387 L 240.452 374.387 Q 241.124 373.595 241.436 373.043 L 241.436 373.043 L 241.436 373.043 Q 241.556 372.755 241.544 372.479 L 241.544 372.479 L 241.544 372.479 Q 241.532 372.203 241.424 372.119 L 241.424 372.119 L 241.424 372.119 Q 241.316 372.035 241.34 371.915 L 241.34 371.915 L 241.34 371.915 Q 241.34 371.723 241.532 371.723 L 241.532 371.723 L 241.532 371.723 Q 241.628 371.723 241.748 371.771 L 241.748 371.771 L 241.748 371.771 Q 242.492 372.107 242.492 373.235 L 242.492 373.235 L 242.492 373.235 Q 242.492 373.907 242.228 374.699 L 242.228 374.699 L 242.228 374.699 Q 242.708 373.955 243.26 373.235 L 243.26 373.235 L 243.26 373.235 Q 244.244 371.963 245.228 371.963 L 245.228 371.963 L 245.228 371.963 Q 245.9 371.963 245.9 372.731 L 245.9 372.731 L 245.9 372.731 Q 245.9 373.451 244.892 375.299 L 244.892 375.299 L 244.892 375.299 Q 245.9 374.003 246.452 373.403 L 246.452 373.403 L 246.452 373.403 Q 247.724 372.083 248.9 372.083 L 248.9 372.083 L 248.9 372.083 Q 250.148 372.083 250.316 373.163 L 250.316 373.163 L 250.316 373.163 Q 250.316 373.283 250.316 373.379 Z " fill-rule="evenodd" fill="rgb(67,67,67)"/><path d=" M 213.023 259.784 C 212.747 259.787 212.474 259.85 212.224 259.969 L 164.976 281.193 C 164.268 281.508 163.807 282.262 163.807 283.039 L 163.807 291.898 C 163.807 292.568 164.169 293.135 164.73 293.497 C 165.291 293.859 165.968 293.958 166.575 293.682 L 213.023 272.58 L 259.472 293.682 C 259.722 293.799 259.995 293.861 260.271 293.865 C 260.641 293.865 260.993 293.767 261.316 293.558 C 261.877 293.198 262.24 292.566 262.24 291.898 L 262.24 283.039 C 262.24 282.262 261.779 281.508 261.07 281.193 L 213.823 259.969 C 213.572 259.85 213.3 259.787 213.023 259.784 Z  M 213.023 276.887 L 168.236 297.247 C 168.083 297.316 167.898 297.379 167.744 297.432 L 167.744 356.248 C 167.744 357.335 168.626 358.216 169.713 358.216 L 256.334 358.216 C 257.426 358.216 258.302 357.34 258.302 356.248 L 258.302 297.434 C 258.149 297.381 257.964 297.318 257.81 297.249 L 213.023 276.887 Z  M 228.958 295.156 L 229.08 295.156 C 229.45 295.166 229.828 295.235 230.188 295.28 C 230.479 295.32 230.773 295.336 231.048 295.404 C 231.111 295.42 231.172 295.45 231.233 295.466 C 231.456 295.527 231.694 295.564 231.911 295.651 C 231.926 295.658 231.956 295.643 231.972 295.651 C 232.017 295.666 232.05 295.696 232.096 295.712 C 232.363 295.828 232.641 295.997 232.895 296.143 C 232.98 296.188 233.064 296.212 233.141 296.265 C 233.554 296.527 233.956 296.836 234.308 297.188 C 237.655 300.732 236.87 307.055 232.34 311.585 C 232.003 311.921 231.649 312.207 231.296 312.506 C 231.164 312.622 231.001 312.707 230.863 312.815 C 230.387 313.189 229.95 313.559 229.45 313.859 C 229.434 313.868 229.402 313.853 229.387 313.859 C 228.573 314.362 227.706 314.775 226.802 315.089 C 226.619 315.152 226.436 315.221 226.251 315.276 C 226.05 315.329 225.835 315.353 225.634 315.398 C 225.573 315.414 225.512 315.382 225.451 315.398 C 224.984 315.492 224.51 315.554 224.034 315.583 C 223.806 315.599 223.589 315.644 223.359 315.644 C 222.802 315.658 222.246 315.616 221.697 315.52 C 221.215 315.417 220.742 315.273 220.284 315.091 L 208.779 326.594 L 192.967 342.467 C 192.768 342.266 189.606 338.914 189.214 338.715 L 213.023 314.721 L 216.346 311.339 C 214.968 307.793 216.368 302.887 219.914 299.342 C 220.252 298.987 220.599 298.665 220.959 298.357 C 221.175 298.172 221.353 297.972 221.575 297.802 C 221.605 297.781 221.668 297.765 221.697 297.743 C 221.713 297.733 221.744 297.749 221.76 297.743 C 222.229 297.389 222.689 297.096 223.174 296.818 C 223.237 296.781 223.298 296.735 223.359 296.696 C 223.52 296.603 223.689 296.534 223.851 296.45 C 224.422 296.164 224.997 295.905 225.573 295.712 C 226.058 295.55 226.566 295.436 227.05 295.341 C 227.312 295.296 227.534 295.251 227.788 295.219 C 228.172 295.174 228.58 295.158 228.958 295.158 L 228.958 295.156 Z  M 193.337 295.406 L 193.707 295.406 L 210.255 311.955 L 202.318 319.954 L 193.522 311.154 C 191.373 309.109 190.142 306.284 190.107 303.318 C 190.072 300.353 191.237 297.499 193.337 295.404 L 193.337 295.406 Z  M 219.421 321.552 L 236.647 338.715 C 236.253 338.715 233.094 342.266 232.895 342.467 L 218.929 328.501 L 214.807 332.624 L 211.547 329.425 L 219.421 321.552 Z " fill="rgb(75,152,247)"/></g></g></svg>