<?xml version="1.0" standalone="no"?><!-- Generator: Gravit.io --><svg xmlns="http://www.w3.org/2000/svg" xmlns:xlink="http://www.w3.org/1999/xlink" style="isolation:isolate" viewBox="179.846 296.222 53.308 57.191" width="53.308" height="57.191"><defs><filter id="4iL8PkC5D4d6MzSIP9UeodFApHCfxVPj" x="-200%" y="-200%" width="400%" height="400%"><feOffset xmlns="http://www.w3.org/2000/svg" in="SourceAlpha" result="offOut" dx="0" dy="0"/><feGaussianBlur xmlns="http://www.w3.org/2000/svg" in="offOut" result="blurOut" stdDeviation="1.5"/><feComponentTransfer xmlns="http://www.w3.org/2000/svg" in="blurOut" result="opacOut"><feFuncA xmlns="http://www.w3.org/2000/svg" type="table" tableValues="0 0.5"/></feComponentTransfer><feBlend xmlns="http://www.w3.org/2000/svg" in="SourceGraphic" in2="opacOut" mode="normal"/></filter></defs><g filter="url(#4iL8PkC5D4d6MzSIP9UeodFApHCfxVPj)"><path d=" M 226.017 340.352 L 218.739 344.808 L 211.462 349.263 C 209.109 350.704 205.229 350.804 202.805 349.486 L 195.308 345.412 L 187.81 341.338 C 185.386 340.02 183.359 336.71 183.288 333.952 L 183.068 325.422 L 182.848 316.892 C 182.777 314.133 184.63 310.723 186.983 309.282 L 194.261 304.827 L 201.538 300.371 C 203.891 298.93 207.771 298.83 210.195 300.148 L 217.692 304.222 L 225.19 308.297 C 227.614 309.615 229.641 312.924 229.712 315.683 L 229.932 324.213 L 230.152 332.743 C 230.223 335.501 228.37 338.911 226.017 340.352 Z " fill="rgb(10,189,227)"/></g></svg>