<?xml version="1.0" standalone="no"?><!-- Generator: Gravit.io --><svg xmlns="http://www.w3.org/2000/svg" xmlns:xlink="http://www.w3.org/1999/xlink" style="isolation:isolate" viewBox="194.544 310.684 23.912 23.912" width="23.912" height="23.912"><path d=" M 206.5 310.684 C 206.433 310.685 206.367 310.701 206.306 310.729 L 194.828 315.885 C 194.656 315.962 194.544 316.145 194.544 316.334 L 194.544 318.486 C 194.544 318.648 194.632 318.786 194.769 318.874 C 194.905 318.962 195.069 318.986 195.217 318.919 L 206.5 313.793 L 217.783 318.919 C 217.844 318.947 217.91 318.963 217.978 318.963 C 218.067 318.963 218.153 318.94 218.231 318.889 C 218.368 318.801 218.456 318.648 218.456 318.486 L 218.456 316.334 C 218.456 316.145 218.344 315.962 218.172 315.885 L 206.694 310.729 C 206.633 310.701 206.567 310.685 206.5 310.684 Z  M 206.5 314.839 L 195.62 319.785 C 195.583 319.802 195.538 319.817 195.501 319.83 L 195.501 334.118 C 195.501 334.382 195.715 334.596 195.979 334.596 L 217.021 334.596 C 217.286 334.596 217.499 334.383 217.499 334.118 L 217.499 319.831 C 217.462 319.818 217.417 319.802 217.38 319.786 L 206.5 314.839 Z  M 210.371 319.277 L 210.4 319.277 C 210.49 319.28 210.582 319.296 210.67 319.307 C 210.74 319.317 210.812 319.321 210.879 319.337 C 210.894 319.341 210.909 319.348 210.924 319.352 C 210.978 319.367 211.036 319.376 211.088 319.397 C 211.092 319.399 211.099 319.395 211.103 319.397 C 211.114 319.401 211.122 319.408 211.133 319.412 C 211.198 319.44 211.266 319.481 211.327 319.517 C 211.348 319.528 211.368 319.534 211.387 319.546 C 211.487 319.61 211.585 319.685 211.671 319.771 C 212.484 320.632 212.293 322.168 211.192 323.268 C 211.111 323.35 211.025 323.419 210.939 323.492 C 210.907 323.52 210.867 323.541 210.834 323.567 C 210.718 323.658 210.612 323.748 210.49 323.82 C 210.487 323.823 210.479 323.819 210.475 323.82 C 210.277 323.943 210.067 324.043 209.847 324.119 C 209.803 324.135 209.758 324.151 209.713 324.165 C 209.664 324.178 209.612 324.183 209.564 324.194 C 209.549 324.198 209.534 324.191 209.519 324.194 C 209.405 324.217 209.29 324.232 209.175 324.239 C 209.119 324.243 209.067 324.254 209.011 324.254 C 208.876 324.257 208.74 324.247 208.607 324.224 C 208.49 324.199 208.375 324.164 208.264 324.12 L 205.469 326.914 L 201.628 330.77 C 201.579 330.721 200.811 329.907 200.716 329.859 L 206.5 324.03 L 207.307 323.208 C 206.972 322.347 207.313 321.155 208.174 320.294 C 208.256 320.208 208.34 320.129 208.428 320.055 C 208.48 320.01 208.523 319.961 208.577 319.92 C 208.585 319.915 208.6 319.911 208.607 319.906 C 208.611 319.903 208.619 319.907 208.622 319.906 C 208.736 319.82 208.848 319.748 208.966 319.681 C 208.981 319.672 208.996 319.661 209.011 319.651 C 209.05 319.629 209.091 319.612 209.13 319.591 C 209.269 319.522 209.409 319.459 209.549 319.412 C 209.666 319.373 209.79 319.345 209.907 319.322 C 209.971 319.311 210.025 319.3 210.087 319.293 C 210.18 319.282 210.279 319.278 210.371 319.278 L 210.371 319.277 Z  M 201.718 319.338 L 201.808 319.338 L 205.828 323.358 L 203.899 325.301 L 201.763 323.163 C 201.241 322.667 200.942 321.98 200.933 321.26 C 200.925 320.539 201.208 319.846 201.718 319.337 L 201.718 319.338 Z  M 208.054 325.689 L 212.239 329.859 C 212.143 329.859 211.376 330.721 211.327 330.77 L 207.935 327.377 L 206.933 328.379 L 206.141 327.602 L 208.054 325.689 Z " fill="rgb(255,255,255)"/></svg>