<?xml version="1.0" standalone="no"?><!-- Generator: Gravit.io --><svg xmlns="http://www.w3.org/2000/svg" xmlns:xlink="http://www.w3.org/1999/xlink" style="isolation:isolate" viewBox="162 490 64 69.798" width="64" height="69.798"><path d=" M 179.988 492.526 L 164.306 492.526 C 163.034 492.526 162 493.56 162 494.832 L 162 505.58 C 162 510.31 165.848 514.142 170.562 514.142 L 171.223 514.142 L 171.223 536.809 L 171.087 536.809 C 169.477 536.809 168.171 538.114 168.171 539.725 L 168.171 556.882 C 168.171 558.493 169.477 559.798 171.087 559.798 L 173.206 559.798 C 174.817 559.798 176.122 558.493 176.122 556.882 L 176.122 539.742 C 176.122 538.131 174.817 536.826 173.206 536.826 L 173.071 536.826 L 173.071 514.159 L 173.732 514.159 C 178.462 514.159 182.294 510.31 182.294 505.597 L 182.294 494.849 C 182.294 493.56 181.259 492.526 179.988 492.526 L 179.988 492.526 Z  M 173.206 538.691 C 173.783 538.691 174.257 539.166 174.257 539.742 L 174.257 556.899 C 174.257 557.476 173.783 557.95 173.206 557.95 L 171.087 557.95 C 170.511 557.95 170.036 557.476 170.036 556.899 L 170.036 539.742 C 170.036 539.166 170.511 538.691 171.087 538.691 L 173.206 538.691 L 173.206 538.691 Z  M 180.429 505.597 C 180.429 509.293 177.428 512.294 173.732 512.294 L 170.562 512.294 C 166.866 512.294 163.865 509.293 163.865 505.597 L 163.865 494.849 C 163.865 494.594 164.068 494.408 164.306 494.408 L 179.988 494.408 C 180.242 494.408 180.429 494.611 180.429 494.849 L 180.429 505.597 Z  M 168.086 497.477 L 168.086 507.14 C 168.086 507.564 167.747 507.903 167.323 507.903 C 166.9 507.903 166.561 507.564 166.561 507.14 L 166.561 497.477 C 166.561 497.053 166.9 496.714 167.323 496.714 C 167.747 496.714 168.086 497.053 168.086 497.477 Z  M 172.901 497.477 L 172.901 507.14 C 172.901 507.564 172.562 507.903 172.138 507.903 C 171.714 507.903 171.375 507.564 171.375 507.14 L 171.375 497.477 C 171.375 497.053 171.714 496.714 172.138 496.714 C 172.562 496.714 172.901 497.053 172.901 497.477 Z  M 177.733 497.477 L 177.733 507.14 C 177.733 507.564 177.394 507.903 176.97 507.903 C 176.546 507.903 176.207 507.564 176.207 507.14 L 176.207 497.477 C 176.207 497.053 176.546 496.714 176.97 496.714 C 177.394 496.714 177.733 497.053 177.733 497.477 Z  M 170.545 555.475 C 170.545 556.364 171.266 557.086 172.155 557.086 C 173.045 557.086 173.766 556.364 173.766 555.475 C 173.766 554.585 173.045 553.864 172.155 553.864 C 171.257 553.864 170.545 554.576 170.545 555.475 Z  M 172.138 554.882 C 172.46 554.882 172.732 555.153 172.732 555.475 C 172.732 555.797 172.46 556.068 172.138 556.068 C 171.816 556.068 171.545 555.797 171.545 555.475 C 171.562 555.136 171.816 554.882 172.138 554.882 Z  M 226 509.649 C 226 498.816 217.184 490 206.351 490 C 195.517 490 186.701 498.816 186.701 509.649 C 186.701 519.364 193.788 527.451 203.062 529.01 L 203.062 530.824 L 201.892 530.824 L 201.96 531.723 C 201.96 531.808 202.485 539.555 202.774 544.336 C 202.892 546.405 202.434 547.931 201.994 549.406 C 201.434 551.254 200.909 552.983 201.655 555.356 C 202.96 559.527 205.808 559.612 206.351 559.578 L 206.452 559.578 C 207.198 559.578 209.809 559.29 211.047 555.339 C 211.793 552.983 211.267 551.237 210.708 549.389 C 210.267 547.914 209.809 546.405 209.928 544.319 C 210.183 540.114 210.454 535.909 210.742 531.706 L 210.81 530.807 L 209.64 530.807 L 209.64 528.993 C 218.913 527.451 226 519.364 226 509.649 L 226 509.649 Z  M 209.453 554.865 C 208.47 558.001 206.52 557.916 206.452 557.916 L 206.402 557.899 L 206.3 557.916 C 206.215 557.916 204.265 558.018 203.282 554.865 C 202.706 553 203.113 551.643 203.621 549.914 C 204.079 548.371 204.605 546.625 204.469 544.269 C 204.248 540.454 203.859 534.741 203.723 532.554 L 208.995 532.554 C 208.843 534.758 208.47 540.471 208.25 544.269 C 208.114 546.642 208.639 548.388 209.097 549.914 C 209.623 551.643 210.03 553 209.453 554.865 L 209.453 554.865 Z  M 208.436 530.841 L 204.265 530.841 L 204.265 529.18 C 204.961 529.248 205.656 529.299 206.351 529.299 C 207.063 529.299 207.758 529.265 208.436 529.18 L 208.436 530.841 Z  M 206.368 527.603 C 196.467 527.603 188.414 519.55 188.414 509.649 C 188.414 499.748 196.467 491.695 206.368 491.695 C 216.269 491.695 224.322 499.748 224.322 509.649 C 224.322 519.55 216.269 527.603 206.368 527.603 L 206.368 527.603 Z  M 206.351 494.798 C 198.162 494.798 191.499 501.461 191.499 509.649 C 191.499 517.838 198.162 524.501 206.351 524.501 C 214.539 524.501 221.202 517.838 221.202 509.649 C 221.202 501.461 214.539 494.798 206.351 494.798 L 206.351 494.798 Z  M 206.368 523.314 C 198.823 523.314 192.703 517.194 192.703 509.649 C 192.703 502.122 198.823 495.985 206.368 495.985 C 213.895 495.985 220.032 502.105 220.032 509.649 C 220.032 517.177 213.912 523.314 206.368 523.314 L 206.368 523.314 Z  M 206.368 551.525 C 205.418 551.525 204.672 552.508 204.672 553.763 C 204.672 555.017 205.418 556.001 206.368 556.001 C 207.317 556.001 208.063 555.017 208.063 553.763 C 208.063 552.508 207.3 551.525 206.368 551.525 Z  M 206.368 554.966 C 206.046 554.966 205.69 554.441 205.69 553.746 C 205.69 553.051 206.046 552.525 206.368 552.525 C 206.69 552.525 207.046 553.051 207.046 553.746 C 207.029 554.441 206.673 554.966 206.368 554.966 Z  M 206.961 525.755 C 206.961 525.993 206.69 526.179 206.368 526.179 C 206.046 526.179 205.774 525.993 205.774 525.755 C 205.774 525.518 206.046 525.331 206.368 525.331 C 206.69 525.331 206.961 525.518 206.961 525.755 Z  M 209.148 526.179 C 209.148 526.416 208.877 526.603 208.555 526.603 C 208.233 526.603 207.961 526.416 207.961 526.179 C 207.961 525.942 208.233 525.755 208.555 525.755 C 208.877 525.755 209.148 525.942 209.148 526.179 Z  M 204.757 526.179 C 204.757 526.416 204.486 526.603 204.164 526.603 C 203.842 526.603 203.57 526.416 203.57 526.179 C 203.57 525.942 203.842 525.755 204.164 525.755 C 204.486 525.755 204.757 525.942 204.757 526.179 Z " fill="rgb(16,172,132)"/></svg>