<?xml version="1.0" standalone="no"?><!-- Generator: Gravit.io --><svg xmlns="http://www.w3.org/2000/svg" xmlns:xlink="http://www.w3.org/1999/xlink" style="isolation:isolate" viewBox="333 532.668 64 64" width="64" height="64"><path d=" M 333 532.668 L 333 590.268 C 333 593.795 335.874 596.668 339.4 596.668 L 377.8 596.668 L 397 577.468 L 397 532.668 L 390.6 539.068 L 384.2 532.668 L 377.8 539.068 L 371.4 532.668 L 365 539.068 L 358.6 532.668 L 352.2 539.068 L 345.8 532.668 L 339.4 539.068 L 333 532.668 Z  M 345.8 540.668 C 345.8 540.668 349 545.468 352.2 545.468 C 355.301 545.468 358.6 540.668 358.6 540.668 C 358.6 540.668 361.701 545.468 365 545.468 C 368.101 545.468 371.4 540.668 371.4 540.668 C 371.4 540.668 374.699 545.468 377.8 545.468 C 380.802 545.468 384.2 540.668 384.2 540.668 C 384.2 540.668 387.499 545.468 390.6 545.468 L 390.6 577.468 L 368.2 577.468 L 368.2 580.668 L 377.8 580.668 L 377.8 583.868 L 368.2 583.868 L 368.2 587.068 L 377.8 587.068 L 377.8 590.268 L 339.4 590.268 L 339.4 545.468 C 342.402 545.468 345.8 540.668 345.8 540.668 Z  M 342.6 548.668 L 342.6 555.068 L 387.4 555.068 L 387.4 548.668 L 342.6 548.668 Z  M 342.6 558.268 L 342.6 580.668 L 365 580.668 L 365 558.268 L 342.6 558.268 Z  M 368.2 558.268 L 368.2 561.468 L 387.4 561.468 L 387.4 558.268 L 368.2 558.268 Z  M 349 561.468 L 349 564.668 L 352.2 561.468 L 358.6 561.468 L 361.8 564.668 L 355.4 564.668 L 355.4 571.068 L 358.6 567.868 L 361.8 567.868 L 361.8 574.268 L 358.6 577.468 L 349 577.468 L 345.8 574.268 L 345.8 564.668 L 349 561.468 Z  M 355.4 571.068 L 352.2 574.268 L 358.6 574.268 L 358.6 571.068 L 355.4 571.068 Z  M 352.2 574.268 L 352.2 564.668 L 349 564.668 L 349 574.268 L 352.2 574.268 Z  M 368.2 564.668 L 368.2 567.868 L 387.4 567.868 L 387.4 564.668 L 368.2 564.668 Z  M 368.2 571.068 L 368.2 574.268 L 387.4 574.268 L 387.4 571.068 L 368.2 571.068 Z  M 342.6 583.868 L 342.6 587.068 L 365 587.068 L 365 583.868 L 342.6 583.868 Z " fill="rgb(121,85,72)"/></svg>