<?xml version="1.0" standalone="no"?><!-- Generator: Gravit.io --><svg xmlns="http://www.w3.org/2000/svg" xmlns:xlink="http://www.w3.org/1999/xlink" style="isolation:isolate" viewBox="189 532.954 64 48.046" width="64" height="48.046"><path d=" M 232.209 544.177 C 229.61 543.448 226.984 542.988 224.345 542.766 C 225.252 541.72 225.811 540.277 225.811 538.661 C 225.811 535.506 223.652 532.954 221.013 532.954 C 218.361 532.954 216.215 535.522 216.215 538.661 C 216.215 540.277 216.775 541.72 217.681 542.766 C 215.042 542.988 212.404 543.448 209.818 544.177 C 200.449 546.792 193.825 556.747 193.825 568.208 L 193.825 571.489 L 248.229 571.489 L 248.229 568.208 C 248.202 556.747 241.578 546.792 232.209 544.177 Z  M 221 540.563 C 220.12 540.563 219.401 539.707 219.401 538.661 C 219.401 537.614 220.12 536.758 221 536.758 C 221.88 536.758 222.599 537.614 222.599 538.661 C 222.599 539.707 221.893 540.563 221 540.563 Z  M 193.811 573.391 L 189 573.391 L 193.811 581 L 248.202 581 L 253 573.391 L 193.811 573.391 L 193.811 573.391 Z " fill="rgb(227,177,25)"/></svg>